<?xml version="1.0" encoding="iso-8859-1"?>
<!-- Uploaded to: SVG Repo, www.svgrepo.com, Generator: SVG Repo Mixer Tools -->
<svg fill="#000000" height="800px" width="800px" version="1.1" id="Layer_1" xmlns="http://www.w3.org/2000/svg" xmlns:xlink="http://www.w3.org/1999/xlink" 
	 viewBox="0 0 512 512" xml:space="preserve">
<g>
	<g>
		<path d="M338.701,106.667h2.632c47.537,0,85.333-37.797,85.333-85.333C426.667,9.551,417.115,0,405.333,0H106.667
			C94.885,0,85.333,9.551,85.333,21.333c0,53.426,35.649,85.333,86.059,85.333h1.907c7.626,30.222,31.146,53.742,61.368,61.368
			v109.298c0,11.782,9.551,21.333,21.333,21.333c47.119,0,85.333,38.214,85.333,85.333S303.119,469.333,256,469.333
			S170.667,431.119,170.667,384c0-11.782-9.551-21.333-21.333-21.333C137.551,362.667,128,372.218,128,384
			c0,70.683,57.317,128,128,128s128-57.317,128-128c0-63.415-46.135-116.071-106.667-126.23v-89.736
			C307.555,160.409,331.075,136.889,338.701,106.667z M131.864,42.667h246.62C371.225,55.523,357.476,64,341.333,64H320H192h-20.608
			C151.649,64,138.084,56.995,131.864,42.667z M218.849,106.667h74.302C285.892,119.523,272.143,128,256,128
			S226.108,119.523,218.849,106.667z"/>
	</g>
</g>
</svg>